<?xml version="1.0" encoding="UTF-8"?>
<svg enable-background="new 0 0 408.833 152.556" viewBox="0 0 408.833 152.556" xmlns="http://www.w3.org/2000/svg">
 <path d="m361.405,18.798c.183,3.935-2.72,8.736.351,11.859 .581-1.918 2.404-2.862 1.882-1.278 3.681-.369-.205-4.866 1.708-7.206-2.92-.673-1.599-2.539-3.941-3.375z" fill-rule="evenodd"/>
 <path d="m323.558,19.741c-1.958,1.333-1.575,8.389.848,10.972 2.115-4.334-1.078-7.171-.848-10.972z" fill-rule="evenodd"/>
 <path d="m373.98 89.99c-3.714 1.095-4.415 7.683-4.585 10.26 3.952-1.163 2.957-7.273 4.585-10.26z" fill-rule="evenodd"/>
 <path d="m321.97 72.5c-2.411 1.459-2.76 8.722-4.691 12.531 4.131-1.946 5.219-9.416 4.691-12.531z" fill-rule="evenodd"/>
 <path d="m270.18 127.44c-4.752 9.811-19.64 1.719-24.672-8 5.153-4.7 10.842-7.498 16.442-10.608 2.885 6.549 11.457 11.943 8.23 18.608zm-21.122-6.01c4.796 2.948 9.505 7.987 15.086 8.457 11.746-11.772-8.793-23.322-15.086-8.457z" fill-rule="evenodd"/>
 <path d="m253.65 111.17c-2.67-1.188-6.125 1.818-5.647 3.832 2.115-0.45 3.98-1.786 5.647-3.832z" fill-rule="evenodd"/>
 <path d="m2.984,27.804c19.307-.023 39.398-2.352 60.289-3.524 19.921-1.12 40.249-.095 60.179-1.253 17.961-1.042 38.129-5.02 57.842-9.561 20.324-4.681 39.488-12.878 57.559-13.218 13.051-.246 29.157,4.603 43.064,4.315 9.181-.19 19.653-2.939 30.252-4.035 21.304-2.203 44.943,3.055 65.787,5.389 12.365,1.385 29.646,4.323 29.889,13.256 .524,19.289-27.008,14.056-36.328,16.955-13.509,1.351-27.446-2.572-41.397-1.047-7.37.806-14.535,4.626-21.66,5.351-9.644.983-20.19-3.831-27.589,5.527 42.685,20.521 87.223,26.455 127.475,49.3 5.767,34.513-41.071,12.854-62.277,7.074-26.268-7.161-48.3-16.484-64.968-13.095-.35,10.063 16.708,15.225 17.493,24.967-10.56,23.538-31.963,8.575-42.513,32.15-10.699-.138-23.185,6.185-32.632,6.199-7.419.01-15.125-4.914-25.168-7.113-23.599-5.165-59.929-1.638-81.196-7.028-22.981-5.826-35.052-17.105-52.047-7.019l-5.325-2.983c8.888-5.595 19.42-5.348 29.083-8.189 .795-1.107-2.106-4.701 1.102-4.046-.22,1.557.171,2.94 1.171,4.154 .967-2.802-1.314-8.549 1.813-9.479 .1,3.21-.55,6.631 1.843,9.196 21.318-4.805 47.895-5.07 65.761-13.287-18.073.189-38.065,2.406-58.541-14.155 28.437,15.536 61.903,14.136 83.4-1.064-5.337-3.071-11.74-3.682-13.7-8.847l4.436,2.487c-1.045-6.191-9.188-14.342-6.843-18.997-.98,21.186 32.324,21.716 50.648,36.556 3.521,2.852 4.986,8.622 8.552,11.79 12.459,11.079 38.325,27.914 43.629,11.63 1.475-4.527-5.874-17.871-9.398-22.763-6.857-9.515-17.315-22.527-25.977-28.557-15.517-10.8-35.671-11.84-39.222-27.814 5.059,3.557 6.6,8.104 13.593,11.116 3.937-3.393-.896-8.159 2.702-8.98 .786,2.865.175,8.934 4.612,8.417 3.356-4.005 6.206-9.805 10.124-11.819-2.581,5.461-8.058,11.736-6.682,16.081 14.856,5.141 28.032,15.589 34.783,25.328 31.917-10.33 73.244,4.919 112.577,17.624 10.837,3.501 33.131,11.804 36.853.833 2.115-6.233-8.018-11.988-14.763-15.274-34.382-16.744-79.107-26.327-115.549-41.446-1.908-.621-8.7,3.843-6.816-.324 10.694-11.2 25.805-10.954 39.771-12.692 5.622-.7 11.034-2.603 17.008-3.294 26.229-3.041 50.338,4.846 68.879-2.207 6.501-2.474 12.802-8.383 8.456-15.085-33.852-7.884-68.854-11.57-103.917-8.105-18.226,1.801-33.92.942-50.984-.589-32.881-2.953-66.637,12.387-96.51,18.207-16.394,3.195-32.968,1.52-50.203,2.181-33.117,1.266-69.597,3.773-101.404,6.13 .995-1.775 1.99-3.55 2.984-5.324zm261.605,63.842c.395,11.847 9.998,21.099 12.129,32.457 6.438.748 12.617.576 16.336-8.335-5.655-8.494-16.405-22.274-28.465-24.122zm-43.467,23.451c-2.333-.235.908,10.869 4.329,4.76-2.22-1.369-3.948-2.875-4.329-4.76zm34.5,21.673c-11.813-7.808-30.909-17.961-31.703-3.777-8.923-9.287-27.699-17.935-34.863-4.381 7.407-3.651 15.946-.771 21.513,7.394-.996,1.774-1.99,3.55-2.985,5.324 4.788,2.848 9.016,3.707 13.418,5.189 8.938-5.838 28.133,3.156 34.62-9.749zm-64.013-4.395c4.305,3.021 6.208,6.721 12.316,9.237 .995-1.775 1.99-3.551 2.984-5.325-2.4-4.755-11.471-9.038-15.3-3.912z" fill-rule="evenodd"/>
 <path d="m320.291,21.408c-1.362-2.508-1.234,5.898-.82,7.705 3.498-.554.371-5.536.82-7.705z" fill-rule="evenodd"/>
 <path d="m239.77,96.394c-2.115.449-3.981,1.787-5.646,3.832-.551-3.857 6.066-4.896 7.354-11.038-5.153,2.885-9.686,10.019-12.503,13.983 3.877-1.264 7.735-2.605 10.795-6.777z" fill-rule="evenodd"/>
 <path d="m61.931,91.17c1.902,1.954 2.553,4.263 1.951,6.924-16.353-.565-31.533,3.027-47.544,3.672 15.331,5.78 32.779-3.897 50.486,1.477-.191-3.683-1.925-6.93-2.231-10.58 1.717-3.636 5.314-.588 7.032-4.223-20.932-.899-40.87,1.712-60.396,5.797 14.697,1.758 33.589-4.559 50.702-3.067z" fill-rule="evenodd"/>
</svg>
