<?xml version="1.0" encoding="UTF-8"?>
<svg viewBox="0 0 316.81 430.41" xmlns="http://www.w3.org/2000/svg">
 <g fill-rule="evenodd">
  <path d="m116.01 158.11c-3.1132-0.44501-3.6368-3.499-6.3939-4.299-3.8332-13.098-3.6636-26.502-6.3969-39.412-2.2939-10.837-7.4888-18.445-10.66-29.379-3.2262-11.125-3.9958-23.047-6.3969-36.545-1.5204-8.545-4.9132-17.062-5.6848-25.798-4.2517-1.235-6.0032-4.646-10.659-4.299-4.2001 0.313-10.99 7.551-12.794 12.182-2.3188 5.955-2.7343 15.32-2.1313 24.364 0.50184 7.548 2.5816 16.932 4.9747 26.513 2.2077 8.834 2.6569 18.122 4.2656 27.229 1.9419 11.007 3.6289 24.29 6.3949 35.83 1.0969 4.581 1.4916 10.135 2.8424 16.481 1.7207 8.072 3.9244 15.13-4.2636 17.914-9.7868-4.702-10.904-18.145-14.925-28.663-1.9567-1.371-3.7281-2.93-5.6858-4.3-5.3466-8.649-11.805-16.081-16.343-25.797-4.3906-9.396-7.829-19.365-11.371-30.096-3.5981-1.752-4.4143-4.349-8.5292-4.299-10.531 0.127-12.945 15.807-10.66 29.379 1.1901 7.071 5.6342 13.256 6.3969 18.631 4.6068 3.948 6.4792 10.226 9.2373 15.766 7.829 15.721 15.581 34.518 24.162 50.877-0.55536 12.403-0.11598 24.355 2.1324 37.977 0.63171 3.823 2.29 7.183 2.8424 10.75 0.99474 6.425-0.049603 13.283 0.7101 19.346 1.1792 9.402 3.8798 21.988 5.6848 32.247 1.2605 7.151 2.5171 14.556 4.9767 20.781 1.6741 4.239 5.2494 8.09 6.3959 12.898 0.92732 3.886 0.63571 8.53 1.4202 12.898 0.69028 3.838 1.1346 7.713 2.1323 11.465 1.9171 7.201 6.1926 13.93 7.107 20.779 0.73586 5.522-0.3511 11.645 0 17.2 0.28861 4.541 1.6275 8.946 2.1323 13.614 0.3362 3.126-1.3637 8.812 2.8424 10.749 1.333-12.563-0.56232-24.829-0.71207-36.546-0.095207-7.453-4.0246-14.98-6.3939-22.931-1.8754-6.283-2.653-12.378-3.5545-18.631-1.4837-10.283-3.1419-15.042-6.3969-22.93-4.584-11.111-6.87-25.308-9.2373-40.846-0.8192-5.373-1.4361-9.786-2.1333-17.197-1.3012-13.87-5.7235-27.249-6.3939-40.128-0.46514-8.94 0.89257-17.011 4.9737-24.364 2.7254-0.131 0.25787 0.586 0.71213 2.149 2.525-0.082001 2.8592-2.372 2.8424-5.015 5.4974-4.728 11.967-8.476 17.056-13.616 1.4857-1.562 2.0282 0.35701 4.2646 0 0.52566-3.053 2.8791-4.263 4.2636-6.449 0.35899-14.783-7.3193-31.407-9.2364-50.161-0.27275-2.659 0.3382-5.277 0-7.882-0.84798-6.487-3.371-13.072-4.2666-20.064-0.49294-3.852 0.67938-8.494 0-12.182-0.60001-3.264-3.4375-6.033-4.2626-9.315-0.65559-2.599-0.16266-6.108-0.71111-9.315-0.91044-5.314-3.3611-14.041-2.8424-21.497 0.56235-8.118 5.297-21.686 13.503-20.781 4.7635 0.526 4.5879 5.545 7.8162 8.599 3.5694 14.671 4.1119 28.654 7.107 42.279 1.2606 5.732 4.3102 14.635 6.3969 20.78 0.8539 2.516 1.0007 5.268 2.1303 7.882 1.9707 4.551 5.1899 11.742 6.3969 19.348 2.045 12.901 2.0956 25.734 7.8171 37.979h4.2636c-3.6408 1.271-8.2803 2.829-12.081 4.299-3.6864 1.427-8.8932 2.338-9.9484 6.449 8.8714-1.694 16.119-6.764 24.162-7.166 2.168-1.874 3.977-4.11 6.3949-5.733 4.7198-16.692-2.051-41.972 3.5535-60.193-2.2097-18.104-1.4212-44.195-1.4212-65.925 0-9.47-1.1286-18.14 3.5525-25.08 12.86-8.424 18.951 7.417 20.61 19.348 1.9578 14.08 0.80034 30.215 2.1304 46.578 0.33614 4.108 1.6116 8.216 2.1333 12.182 0.56828 4.313 1.5323 7.994 2.1303 12.182 2.9724 20.787-3.1528 42.182 0.71208 60.193-4.573 0.70099-18.052-3.579-20.611 2.866 1.1286 2.768 6.1578-0.483 9.9494-0.716 5.6997-0.351 12.1 1.127 17.056 3.583 8.1345-0.25201 9.2641-7.262 12.083-15.048 0.57617-1.589 2.0986-2.476 2.8424-4.299 0.64166-1.572 0.028748-3.983 0.71201-5.732 1.3409-3.45 2.8841-6.893 4.2637-10.75 1.2506-3.499 3.6368-6.416 4.9737-10.032 1.0275-2.778 1.0503-6.354 2.1334-9.315 2.4397-6.677 6.6339-13.189 9.2373-20.064 1.4569-3.844 2.5934-7.626 3.5544-11.465 1.57-6.275 1.2814-14.081 4.9738-18.63 5.3982-6.653 6.9315-18.231 14.213-20.781 8.0253-0.758 11.302 3.166 9.9494 16.481-1.5134 14.907-7.8707 32.007-10.659 48.009-0.75671 4.343-1.1217 9.254-2.1333 13.615-0.89951 3.88-3.9561 7.582-4.9737 11.465-0.37593 1.429 0.41055 3.069 0 4.299-4.1635 12.434-13.273 28.428-14.925 42.995-0.58119 5.126 1.0602 10.159 1.4211 15.765 0.66653 10.323-0.38579 20.75-0.70902 29.381-7.3372 1.427-8.8436-3.027-12.083-5.733-3.6199 0.306-6.5684-0.067001-7.8161-2.151-12.572 2.904-23.564 5.423-33.403 11.465-2.6858 1.649-6.3077 2.812-9.2394 5.018-2.4864 1.87-3.9135 5.042-6.3949 7.165-4.2804 3.659-10.533 5.115-13.504 10.748-5.0788 0.851-8.435 3.437-11.371 6.45-4.103 0.401-8.3239 0.68201-8.5282 5.015 6.2442-0.965 11.004-4.293 16.346-7.166 1.8298-0.98299 4.3211-1.235 5.6848-2.148 1.4113-0.946 2.0688-3.126 3.5525-4.299 1.3607-1.078 3.5763-1.076 4.9757-2.151 0.69916-0.53799 0.69521-2.259 1.4222-2.866 1.6563-1.383 4.3211-2.594 6.394-4.299 2.7442-2.255 5.3932-4.435 8.5292-6.448 4.6395-2.979 7.4512-4.988 13.503-7.166 1.4856-0.534 2.9891-1.723 4.2645-2.15 1.2437-0.418 3.5357 0.44701 4.9758 0 1.2734-0.396 1.8258-1.945 2.8434-2.149 3.486-0.703 7.0901 0.177 10.66-0.717 3.4018 2.305 8.2674 3.128 10.662 6.451 1.8684 0.73999 4.3608 0.85599 7.107 0.715 5.0501 6.64 3.1955 13.822 6.3949 22.931-6.1579-0.32901-7.6326-8.904-12.081-8.599 0.0952 4.382 4.0593 7.571 7.8162 10.749 4.343 3.674 7.6098 8.341 14.925 7.166 3.1558-0.508 6.0894-4.287 9.9494-7.884 3.1587-2.94 5.8276-6.458 8.5282-9.314 6.3146-6.681 13.194-11.419 17.766-17.915 1.6127-2.29 1.8755-5.526 3.5545-7.881 0.43146-0.605 1.1515 0.30101 1.4212-0.71799 1.0146-3.829 7.6822-7.168 12.083-10.032 7.1517-4.657 12.205-7.133 20.608-7.881 6.0032 2.128 11.384 2.837 18.478 2.148 1.8566 1.525 3.3383 2.06 3.5544 4.3 0.49594 5.127-4.7446 4.879-9.9494 7.883-4.8071 2.773-8.0541 7.956-11.371 7.881-1.8586 5.292-6.3017 7.977-8.5282 12.898-4.8398 1.774-1.8833-4.312-5.6858-3.581-2.409 3.183-0.22717 4.713 0.71011 7.881-2.1086 0.26199-3.5049 1.242-4.2636 2.866-3.0081 0.645-0.72198-4.048-3.5525-3.582 0.83112 8.208-3.8411 9.257-7.8182 13.614-3.1895 3.494-3.9056 7.517-7.107 10.032-2.0609 12.971-7.589 22.443-14.925 30.096-1.5084 2.229-3.1667 0.15302-4.9737 1.436-9.5537 15.924-18.861 32.097-27.717 48.727-8.2971 6.92-13.928 16.527-27.006 18.631 1.9954 4.405 10.022 1.389 12.792 0-0.81917 7.271-2.2057 13.985 0 22.93 1.1653 4.726 3.6924 9.736 4.2636 15.049 0.56726 5.271-0.51376 10.45 0 15.047 1.0086 9.016 4.0276 17.373 7.8181 22.931-0.41652-7.61-3.6764-15.689-4.2636-25.079-0.35704-5.662 0.59601-11.511 0-17.199-0.7468-7.118-5.308-13.508-5.6848-19.347-0.16364-2.496 1.8834-13.813 3.5525-17.197 2.5151-5.095 9.1312-10.139 12.792-15.05 1.8298-2.452 3.2262-5.845 4.9757-8.599 4.8646-7.66 10.786-16.324 14.214-26.512 6.0706-9.845 17.448-14.608 22.741-25.081 2.0936-4.142 1.8377-9.051 3.5525-13.616 1.2873-3.421 3.4573-6.758 5.6848-10.031 2.1561-3.166 5.2217-4.826 7.8192-7.882 1.8853-2.217 2.3405-5.302 4.2636-7.166 2.5082-2.429 6.9742-4.28 10.662-6.449 5.1226-14.663 21.257-18.22 31.978-27.234-0.50983-12.861-12.379-14.269-24.162-15.765-5.8058 3.7-13.143 2.207-18.478 4.299-3.018 1.184-7.5216 4.375-10.66 6.45-8.2664 5.464-11.095 11.973-17.058 20.064-7.3004 9.904-17.867 18.784-26.294 28.662-3.1747 0.381-4.9697 2.155-9.2393 1.434-1.7207-3.815-4.6415-11.437-2.1303-15.049-1.0879-4.876-3.2054-8.712-5.6858-12.181 4.1049-9.554 1.4034-27.74 1.4212-41.562-0.41257-3.043 1.9151-3.324 3.5525-4.299-0.039673-2.349-2.0222-2.739-1.4212-5.732 4.3985-15.499 14.008-34.256 17.768-50.877 1.197-5.294 1.081-10.692 2.1313-16.481 1.4213-7.828 5.8297-15.022 7.8182-22.93 2.7491-10.944 1.8794-22.788 4.9737-34.396-4.9628-3.58-4.7754-12.572-12.081-13.616-4.3232-0.617-7.1894 2.136-12.083 3.584-2.9 5.566-7.3401 10.067-9.9494 15.765-5.1265 11.194-5.5222 25.381-9.9494 37.262-1.1614 3.119-3.61 6.103-4.9737 9.315-3.0061 7.077-4.5185 14.67-7.107 21.498-2.537 6.684-5.9616 13.771-8.5282 20.78-1.0394 2.838-2.7422 6.761-4.2636 10.033-1.6116 3.456-1.805 8.393-7.8181 6.449-7.357-16.534-0.11105-35.548-1.4222-53.744-0.40366-5.603-2.0063-11.529-2.8424-17.198-3.1152-21.142-3.5932-51.072-7.1071-73.091-4.5353-5.833-7.9579-14.782-19.189-12.182-1.6404 0.381-5.8961 3.79-7.107 5.733-5.8088 9.331-3.3234 32.792-3.5525 47.294-0.14778 9.38 1.0126 22.302 2.1313 30.812 0.63276 4.817-0.83208 9.568-1.4222 13.615-3.3343 22.917 2.5925 44.584-4.2626 60.193zm-101.63-68.075c0.007919 0.948 1.2457 0.655 1.4212 1.434 4.0256 5.17 5.4587 11.476 7.8191 17.914 2.6292 7.18 5.8336 16.743 9.9484 22.93 2.1998 3.307 5.3744 5.831 7.8172 9.316 1.1118 1.585 2.3247 3.335 3.5545 5.016 1.1742 1.604 3.1191 3.218 4.2636 5.016 4.2884 6.734 5.2395 15.814 9.2373 22.93 1.6196 2.88 4.5443 4.271 4.9767 7.882-6.0062 5.649-12.372 10.935-18.478 16.482-2.296-5.895-5.6957-11.116-8.5292-17.2-2.6421-5.674-4.2557-12.193-7.106-18.63-1.7495-3.948-5.1285-6.926-7.107-10.749-2.0113-3.884-2.7313-8.882-4.9757-12.898-1.2754-2.283-3.1727-3.787-4.2646-5.734-4.3965-7.846-9.2106-21.337-7.8161-31.529 0.60796-4.46 2.3554-8.496 4.9737-12.182 1.4222 0.002007 2.8434 0.002007 4.2646 0.002007z"/>
  <path d="m146.18 58.372c-4.476-2.45-11.469-2.386-18.631-2.15v-2.149c6.051-1.176 17.978-2.287 18.631 4.299z"/>
  <path d="m205.75 69.404c4.283 1.689 10.92 1.022 12.183 5.732-2.831-0.428-11.529-0.777-12.183-5.732z"/>
  <path d="m85.936 86.003c-3.592 3.34-11.141 6.526-17.198 5.016 1.439-4.054 9.522-1.464 11.465-5.016h5.733z"/>
  <path d="m145.03 93.5c-0.22501 2.579-1.949 0.62-3.582 0.717-3.386 0.202-10.508 2.782-12.183-1.433 4.501-0.579 12.435-1.857 15.765 0.716z"/>
  <path d="m149.31 89.666c-7.328-2.576-17.245 1.875-21.497-3.583 2.266 0.729 4.834-0.644 7.166-0.717 4.948-0.154 12.823-0.721 14.331 4.3z"/>
  <path d="m202.87 96.232c4.86 2.782 14.138 1.148 14.331 8.599-3.704-2.744-8.26-4.64-13.616-5.732-0.55501-0.638-0.77-1.619-0.71501-2.867z"/>
  <path d="m196.57 108.53c6.016 1.867 12.983 2.781 17.913 5.732-0.435 4.344-6.065 0.158-7.881-0.717-4.524 0.463-6.15-1.97-10.032-2.149v-2.866z"/>
  <path d="m95.968 119.98c-3.936 2.365-13.186 8.948-17.198 4.3 6.194-0.576 11.482-5.604 17.198-4.3z"/>
  <path d="m88.102 115.71c-2.455 3.04-6.652 4.334-11.465 5.016 0.625-3.306 7.733-5.967 11.465-5.016z"/>
  <path d="m275.36 211.15c1.968 2.572 6.469 2.609 6.45 7.166-3.486-0.097-4.156-3.01-7.166-3.583-0.229-1.661 0.11398-2.751 0.716-3.583z"/>
  <path d="m148.03 129.24c-5.412-0.797-10.394-2.026-17.197-1.433-0.85899-0.94101-0.27899-1.127 0-2.149 4.259 0.295 15.424-2.614 17.197 3.582z"/>
  <path d="m267.92 235.41c-3.671-3.497-8.455-5.876-11.465-10.032 4.214 0.196 11.33 3.395 11.465 10.032z"/>
  <path d="m197.45 154.14c-3.316-5.761-14.105-4.049-17.914-9.315 5.094 1.188 18.733-0.15799 17.914 9.315z"/>
  <path d="m43.599 144.84c-0.177 2.941-2.396 1.052-3.584 1.433-6.099 1.955-11.322 8.459-18.631 6.449 4.287-4.552 12.357-5.32 17.198-9.315 1.281 0.869 4.17 0.12999 5.017 1.433z"/>
  <path d="m162.38 162.13c-6.7124 5.445-28.428 3.174-27.331 12.182 7.8566-5.67 20.257-3.609 28.274-9.315 0.39717-1.498-0.64838-1.899-0.94296-2.867z"/>
  <path d="m238.68 243.76c5.622 2.261 11.936 3.83 12.181 11.467-1.515-1.831-4.438-2.249-5.015-5.017-3.024-1.514-5.941-3.137-7.166-6.45z"/>
  <path d="m68.101 241.95c4.2283-2.082 7.9629-4.701 10.523-8.599 4.6377-1.924 8.9862-5.101 14.469-7.166 2.7351-1.031 5.8896-1.175 8.5503-2.15 5.0461-1.85 9.1597-5.685 13.81-7.882 2.3349-1.102 5.0158-1.162 7.236-2.15 2.1761-0.96901 3.6786-2.508 5.918-3.582 7.057-3.382 15.492-3.96 23.02-6.45 0.1239-0.58099 0.6608-0.713 0.65622-1.433 0.24322-1.219-0.5112-1.352-1.3152-1.433-3.528-0.26199-5.5922 1.073-7.2342 2.866-7.9014-1.737-15.486 5.094-22.36 7.166-0.79025 0.23901-1.8705-0.31999-2.6304 0-0.67368 0.285-0.95819 1.976-1.3152 2.151-0.91049 0.44301-2.3826-0.45599-3.2894 0-2.7433 1.379-5.0837 3.889-7.2342 5.733-7.9298 1.392-14.123 4.676-21.703 6.447-4.8846 6.381-14.873 7.2-17.1 16.482z"/>
  <path d="m150.18 344.42c-4.5854-2.975-10.816-4.387-13-7.884-1.4673-2.348-1.2275-6.782-1.4432-9.314-0.8828-10.462 3.3015-22.062 1.4432-32.246 3.362-2.596 3.8316-6.086 2.8903-10.75-0.010086-0.056-2.6303 1.496-1.4432 2.151-4.2589-2.354-2.0559-15.499-1.4472-17.916 0.46158-1.817 3.5555-3.689 4.3335-5.732 0.64094-1.683-0.71555-3.599 0-5.015 7.1996-14.238 26.569-25.869 47.664-29.381-1.2456-2.404-14.615-1.029-20.22 0.718-6.5325 2.032-9.7816 7.728-17.336 7.882-7.1936 6.94-11.241 15.441-18.773 22.215 2.3602 4.91-2.1345 9.538-2.8903 15.047-1.1771 8.58 2.203 18.431 1.4432 29.38-0.54825 7.975-3.7893 15.943-2.8904 22.931 0.84048 6.468 5.307 20.409 21.669 17.914z"/>
  <path d="m92.02 357.88c0.19576 3.8649 3.6247 2.5527 4.2726 5.6971 6.2926-0.45966 12.028 0.62186 17.799 0 3.9129-0.42148 7.6111-3.2319 11.392-3.418 3.1557-0.15588 7.004 3.0649 10.681 3.418 1.1784 0.11447 2.484-1.3583 3.5581-1.1388 7.6509 1.5524 13.087 3.6661 21.36 3.4164 8.1368-0.24017 16.792 4.6108 20.649-5.6971-1.4408-3.4959-4.2278 0.7316-5.6954 1.1388-7.7174 2.1567-18.805-0.24496-26.345-2.2808-5.0208-1.3535-10.95-0.92566-15.664-2.2791-11.225-3.2192-24.788 5.492-34.886 3.4195-2.6053-0.53278-4.2587-3.437-7.1213-2.276z"/>
  <path d="m129.7 373.62c6.219 5.298 17.175 7.871 26.512 7.882-1.978 3.268-7.667 2.654-11.465 2.15-6.687-0.888-14.431-3.934-15.047-10.032z"/>
  <path d="m179.24 373.08c-0.88699 2.693-7.241 1.291-9.316 0.715 1.073-4.703 6.025-1.57 9.316-0.715z"/>
  <path d="m110.14 384.23c0.232 2.594-2.733 1.125-4.3 1.433-2.644 0.521-5.979 2.271-7.883 0.71799 0.87-3.447 9.036-3.366 12.183-2.151z"/>
  <path d="m179.52 378.1c-0.972 2.095-4.204 1.134-5.732 0-1.876 0.784-4.651 2.296-5.732-0.716 3.013-1.52 8.263 0.11902 11.464 0.716z"/>
  <path d="m109.71 377.82c-1.053 2.531-5.466 1.699-8.599 2.148 0.12399-3.457 5.4-1.765 8.599-2.148z"/>
  <path d="m176.09 387.4c-4.19-0.51202-4.894-0.19101-9.313 0 0.241-2.969 9.143-3.361 9.313 0z"/>
  <path d="m108.99 391.26c-2.81 1.048-5.891 0.70898-9.314 1.435-0.39999-4.164 7.81-3.445 9.314-1.435z"/>
  <path d="m177.66 391.42c-3.308-0.26199-4.123-0.88202-7.166 0 0.48201-2.646 6.299-3.093 7.166 0z"/>
  <path d="m107.13 398.43c-0.357 2.446-5.298 1.063-5.015-1.435 1.96-1.873 3.056 1.157 5.015 1.435z"/>
  <path d="m199.21 391.71c2.553-0.16498 3.746 1.029 3.582 3.583-1.98-0.409-4.018-0.758-3.582-3.583z"/>
 </g>
</svg>
